<?xml version="1.0" encoding="utf-8"?>
<!-- Generator: Adobe Illustrator 19.1.0, SVG Export Plug-In . SVG Version: 6.00 Build 0)  -->
<svg version="1.1" id="Layer_1" xmlns="http://www.w3.org/2000/svg" xmlns:xlink="http://www.w3.org/1999/xlink" x="0px" y="0px"
	 viewBox="-211 199.5 385 217" style="enable-background:new -211 199.5 385 217;" xml:space="preserve">
<style type="text/css">
	.st0{fill:url(#SVGID_1_);}
	.st1{fill:url(#SVGID_2_);}
	.st2{fill:url(#SVGID_3_);}
	.st3{fill:url(#SVGID_4_);}
	.st4{fill:url(#SVGID_5_);}
	.st5{fill:url(#SVGID_6_);}
	.st6{fill:url(#SVGID_7_);}
</style>
<g id="Layer_1_1_">
</g>
<g id="_x3C_Layer_x3E_">
	<g>
		
			<linearGradient id="SVGID_1_" gradientUnits="userSpaceOnUse" x1="-207" y1="361.2" x2="-77.3" y2="361.2" gradientTransform="matrix(1 0 0 -1 0 617)">
			<stop  offset="0" style="stop-color:#94A999"/>
			<stop  offset="0.5112" style="stop-color:#7D9987"/>
			<stop  offset="1" style="stop-color:#527B66"/>
		</linearGradient>
		<path class="st0" d="M-80.2,260.4c0.5-0.8,1-1.2,1.6-1.2c0.9,0,1.3,0.5,1.3,1.5c0,0.3-0.1,0.6-0.2,1c-0.2,0.4-0.3,0.7-0.5,1.1
			c-0.8,1.6-1.8,3.9-3.1,6.8c-1.3,2.9-2.8,6-4.6,9.3c-1.8,3.3-3.7,6.7-5.8,10.2c-2.1,3.5-4.3,6.6-6.8,9.4s-5,5.1-7.8,6.9
			c-2.7,1.8-5.5,2.7-8.4,2.7c-3.7,0-6.5-1.2-8.5-3.5c-2-2.4-2.9-5.4-2.9-9.2c0-3.6,0.5-7.6,1.6-12s2.3-8.6,3.8-12.8
			c1.4-4.1,2.8-7.9,4.1-11.2c1.3-3.4,2.3-5.8,2.8-7.4c-2.4,0.9-4.9,1.8-7.3,2.9c-2.4,1-4.9,2-7.3,3c-2.4,1-4.9,1.8-7.3,2.6
			c-2.5,0.8-4.9,1.3-7.3,1.6c-1.9,3.5-4.1,7-6.6,10.5s-5.2,6.6-8.2,9.3c-3,2.7-6.1,5-9.5,6.7c-3.3,1.7-6.8,2.6-10.3,2.6
			c-2.7,0-5.3-0.5-7.6-1.6c-2.3-1.1-4.5-3.4-6.3-7c-0.4,0.2-1.1,0.6-2,1.2s-2,1.2-3.3,1.8c-1.1,0.4-2.4,0.9-3.7,1.4
			s-2.6,0.7-3.8,0.7c-1.1,0-1.9-0.3-2.3-1c-0.4-0.7-0.6-1.3-0.6-1.9c0-1.4,0.3-2.4,0.9-3c0.6-0.6,1.3-0.9,2.1-0.9
			c0.6,0,1.2,0.2,1.6,0.6c0.4,0.4,0.6,0.9,0.6,1.5c0,0.5-0.2,1.1-0.7,1.6c0.6-0.1,1.4-0.3,2.3-0.6c0.9-0.4,1.8-0.8,2.8-1.2
			c1-0.4,1.8-1,2.6-1.5s1.5-1.1,1.9-1.5c-1-2.3-1.7-4.6-1.9-7c-0.3-2.4-0.4-4.9-0.4-7.5c0-3.7,0.5-7.3,1.5-10.8s2.5-6.7,4.5-9.4
			s4.5-4.9,7.6-6.6c3.1-1.6,6.6-2.5,10.7-2.5c2.7,0,4.7,0.6,5.8,1.8c1.1,1.2,1.7,2.8,1.7,4.9c0,2.7-0.9,6-2.6,9.7s-3.8,7.4-6.2,11
			c-2.4,3.6-4.9,6.8-7.5,9.7s-4.7,4.8-6.3,5.8c1.4,3.3,3.1,5.5,4.9,6.7c1.8,1.2,3.8,1.8,5.9,1.8c2.7,0,5.6-0.9,8.5-2.8
			c2.9-1.8,5.7-4.1,8.3-6.7c2.6-2.6,5-5.4,7.2-8.3s3.8-5.5,5-7.7h-1.2c-1.2,0-2.4-0.1-3.6-0.3c-1.3-0.2-2.4-0.6-3.4-1.1
			s-1.8-1.2-2.5-2c-0.6-0.8-0.9-1.9-0.9-3.3c0-1,0.3-1.6,0.8-2.1c0.5-0.4,1.1-0.7,1.8-0.7s1.4,0.2,1.9,0.6c0.6,0.4,0.9,1,0.9,1.8
			c0,0.5-0.1,1-0.3,1.4c-0.2,0.5-0.6,0.9-1.1,1.2c0.8,0.6,1.8,1.1,2.9,1.4c1.2,0.3,2.3,0.4,3.4,0.4c0.4,0,0.8,0,1.2-0.1
			c0.4,0,0.8-0.1,1.2-0.2c1.2-1.6,2.6-4.2,4.3-7.6c1.7-3.4,3.6-7.1,5.6-11.2c2.1-4.1,4.3-8.3,6.6-12.7c2.3-4.4,4.8-8.3,7.3-11.9
			c2.5-3.6,5.2-6.5,7.9-8.8c3-2.1,5.7-3.2,8.4-3.2c3.4,0,5.7,1.2,7,3.6c1.3,2.4,1.9,5.3,1.9,8.7c0,2.7-0.3,5.6-0.9,8.6
			s-1.3,5.9-2.1,8.7c-0.8,2.8-1.6,5.4-2.4,7.7s-1.5,4-1.9,5.2c0.9-0.4,1.8-0.7,2.8-1c1-0.2,2.1-0.4,3.2-0.4c2.2,0,4,0.4,5.5,1.2
			c1.4,0.8,2.2,2.1,2.2,3.9c0,1.1-0.3,1.9-1,2.5c-0.7,0.5-1.4,0.8-2.2,0.8c-0.8,0-1.5-0.2-2.1-0.6c-0.6-0.4-0.9-0.9-0.9-1.5
			c0-0.5,0.2-1.1,0.6-1.8c0.4-0.8,1-1.1,1.9-1.1c-0.5-0.5-1.2-0.7-2.2-0.7c-0.7,0-1.4,0.1-2.2,0.2c-0.8,0.2-1.6,0.4-2.3,0.6
			c-0.8,0.2-1.5,0.5-2.2,0.6c-0.7,0.2-1.2,0.3-1.6,0.4c-0.6,1.6-1.4,3.6-2.3,6c-0.9,2.5-1.9,5.2-2.9,8.1c-1,2.9-2.1,6-3.1,9.3
			c-1.1,3.2-2,6.4-2.9,9.5c-0.9,3.1-1.5,6-2.1,8.8c-0.5,2.8-0.8,5.2-0.8,7.3c0,1.9,0.4,3.4,1.1,4.5s1.7,1.6,2.9,1.6
			c2.5,0,4.9-0.8,7.3-2.5c2.3-1.6,4.6-3.8,6.8-6.4c2.2-2.6,4.2-5.6,6.2-8.8c2-3.3,3.8-6.5,5.5-9.8c1.7-3.2,3.2-6.3,4.6-9.2
			C-82.4,264.6-81.2,262.2-80.2,260.4z M-186.8,276c2.4-1.7,4.9-4.1,7.3-7c2.4-3,4.6-6.1,6.6-9.4c2-3.3,3.6-6.5,4.9-9.6
			s1.9-5.7,1.9-7.8c0-1.1-0.4-1.9-1.2-2.4s-1.7-0.8-2.6-0.8c-3.1,0-5.8,0.8-8,2.5c-2.2,1.6-4.1,3.8-5.5,6.4c-1.4,2.6-2.5,5.6-3.2,9
			c-0.7,3.4-1,6.8-1,10.3c0,1.6,0.1,3.1,0.2,4.6C-187.4,273.2-187.2,274.6-186.8,276z M-141.1,259c2.1-0.5,4.4-1.2,6.9-1.9
			c2.5-0.7,5-1.6,7.6-2.6s5.1-2,7.7-3.2c2.5-1.1,5-2.4,7.2-3.7c0.3-1.2,1-3.2,1.9-6c1-2.8,2-5.9,3.1-9.3c1.1-3.4,2-6.8,2.9-10.3
			s1.3-6.5,1.3-9.1c0-2-0.3-3.4-0.8-4.5c-0.5-1-1.5-1.5-2.9-1.5c-1.8,0-3.7,1-5.8,3c-2.1,2-4.2,4.6-6.5,7.7
			c-2.2,3.1-4.5,6.7-6.7,10.6c-2.2,4-4.3,7.8-6.3,11.7c-2,3.8-3.8,7.5-5.5,10.9C-138.8,254.2-140.1,256.9-141.1,259z"/>
		
			<linearGradient id="SVGID_2_" gradientUnits="userSpaceOnUse" x1="-88.9844" y1="338.45" x2="22.2156" y2="338.45" gradientTransform="matrix(1 0 0 -1 0 617)">
			<stop  offset="0" style="stop-color:#94A999"/>
			<stop  offset="0.5112" style="stop-color:#7D9987"/>
			<stop  offset="1" style="stop-color:#527B66"/>
		</linearGradient>
		<path class="st1" d="M-10.2,259.6c2.4,0,4.1,0.6,5,1.8c0.9,1.2,1.4,2.7,1.4,4.5c0,1.8-0.3,3.7-0.9,5.8c-0.6,2.1-1.3,4.1-2,6
			c-0.7,2-1.4,3.7-2,5.3s-0.9,2.7-0.9,3.4c0,0.6,0.2,1.3,0.5,1.9c0.3,0.6,0.9,0.9,1.6,0.9c1.4,0,2.9-0.5,4.5-1.6s3.2-2.4,4.8-4.1
			c1.6-1.6,3.1-3.3,4.6-5c1.4-1.8,2.6-3.3,3.6-4.6c0.9-1.3,2-2.9,3.1-4.6c1.1-1.7,2.1-3.3,3.1-4.9c1-1.5,1.9-2.8,2.7-3.9
			c0.8-1.1,1.5-1.6,1.9-1.6c0.9,0,1.3,0.4,1.3,1.2c0,0.4-0.1,0.7-0.4,1.1c-1.4,2.3-2.8,4.7-4.2,7.2c-1.4,2.4-2.9,4.8-4.6,7
			c-1.5,2-3.1,4-4.9,6.1c-1.8,2.1-3.7,4.1-5.7,5.8c-2,1.8-4,3.2-6,4.4s-4,1.8-6,1.8c-2.3,0-4.1-0.7-5.5-2.1
			c-1.4-1.4-2.1-3.1-2.1-5.1c0-1.6,0.3-3.6,0.9-5.8c0.6-2.2,1.2-4.4,1.9-6.5c0.7-2.2,1.3-4.1,1.9-5.9c0.6-1.8,0.9-3,0.9-3.6
			c0-0.3-0.1-0.5-0.2-0.5c-1.6,0-3.2,0.9-4.9,2.6c-1.7,1.7-3.3,3.9-5,6.5c-1.6,2.6-3.2,5.3-4.8,8.2s-2.9,5.5-4.1,7.9
			c-0.4,0.7-1,1.2-1.9,1.6s-1.7,0.5-2.6,0.5c-0.9,0-1.8-0.2-2.5-0.6s-1.1-1-1.1-1.8c0-0.3,0-0.6,0.1-0.8l4.5-14.8
			c-2,3.4-4.1,6.8-6.2,10.1c-2.1,3.3-4.3,6.2-6.6,8.8c-2.3,2.6-4.6,4.7-7,6.2c-2.4,1.6-4.8,2.3-7.3,2.3c-2.6,0-4.3-0.8-5.2-2.5
			c-0.9-1.7-1.3-3.8-1.3-6.4c0-2.4,0.4-5.1,1.2-8.1s1.7-5.8,2.6-8.6c0.9-2.7,1.8-5.2,2.6-7.5c0.8-2.3,1.2-3.9,1.2-4.9
			c0-0.7-0.2-1.1-0.6-1.1c-1.6,0-3.3,1-5.1,3s-3.7,4.4-5.5,7.2c-1.8,2.8-3.6,5.8-5.3,9c-1.7,3.2-3.1,5.9-4.3,8.3
			c-0.4,0.7-1,1.2-1.9,1.6c-0.9,0.4-1.7,0.5-2.6,0.5s-1.8-0.2-2.5-0.6s-1.1-1-1.1-1.8c0-0.3,0-0.6,0.1-0.8c1.4-4.7,2.9-9.5,4.4-14.4
			s3.1-9.9,4.6-14.9c0.2-0.9,0.7-1.5,1.4-1.8c0.7-0.4,1.4-0.5,2.3-0.5c1.1,0,2.1,0.3,2.9,0.9c0.9,0.6,1.3,1.3,1.3,2.2
			s-0.1,1.8-0.4,2.9c-0.3,1.1-0.6,2.2-0.9,3.4c-0.4,1.2-0.7,2.3-1.1,3.4c-0.4,1.1-0.6,2.1-0.9,3.1c1.2-1.8,2.4-3.6,3.6-5.4
			c1.2-1.8,2.5-3.4,3.8-4.9c1.3-1.4,2.7-2.6,4.2-3.5s3.1-1.4,4.7-1.4c2.7,0,4.4,0.8,5.2,2.5c0.8,1.6,1.2,3.7,1.2,6.2
			c0,2.4-0.4,5.1-1.2,7.9c-0.8,2.9-1.7,5.7-2.6,8.4c-0.9,2.7-1.8,5.3-2.6,7.6c-0.8,2.3-1.2,4.1-1.2,5.2s0.4,1.6,1.2,1.6
			c1.3,0,2.8-0.6,4.5-1.8c1.7-1.2,3.4-2.8,5.2-4.9c1.8-2,3.6-4.3,5.4-6.9c1.8-2.5,3.5-5.2,5.2-7.9c1.7-2.7,3.2-5.3,4.7-7.9
			c1.4-2.5,2.7-4.8,3.8-6.9c0-0.9,0.5-1.5,1.4-1.9c0.9-0.4,1.7-0.6,2.3-0.6c1.1,0,2.1,0.3,2.9,0.9c0.9,0.6,1.3,1.3,1.3,2.2
			c0,1.7-0.4,3.6-1.1,5.6c-0.7,2-1.3,3.9-1.8,5.7c1.2-1.8,2.3-3.5,3.3-5c1.1-1.6,2.2-2.9,3.3-4.1c1.2-1.1,2.4-2,3.8-2.7
			C-13.3,260-11.8,259.6-10.2,259.6z"/>
		
			<linearGradient id="SVGID_3_" gradientUnits="userSpaceOnUse" x1="14.5" y1="345.3" x2="77.3252" y2="345.3" gradientTransform="matrix(1 0 0 -1 0 617)">
			<stop  offset="0" style="stop-color:#94A999"/>
			<stop  offset="0.5112" style="stop-color:#7D9987"/>
			<stop  offset="1" style="stop-color:#527B66"/>
		</linearGradient>
		<path class="st2" d="M40.7,272.9c-0.6,1.3-1.5,2.7-2.8,4.1c-1.2,1.4-2.5,2.6-3.9,3.8c-1.4,1.2-2.9,2.1-4.4,2.9
			c-1.5,0.7-2.9,1.1-4.2,1.1c-3.9,0-6.7-1-8.4-3s-2.5-4.5-2.5-7.5c0-3.1,0.8-6.4,2.3-10c1.5-3.6,3.6-7,6.2-10.1
			c2.6-3.1,5.5-5.7,8.9-7.8c3.3-2.1,6.8-3.2,10.4-3.2c2,0,3.5,0.6,4.4,1.9s1.4,2.8,1.4,4.5c0,1.1-0.2,2.2-0.5,3.2
			c-0.3,1.1-0.7,2-1.3,2.9c-0.5,0.9-1.2,1.6-1.9,2.2c-0.7,0.5-1.5,0.8-2.4,0.8c-1.1,0-2-0.3-2.6-0.9s-0.9-1.3-0.9-2.1
			c0-1.1,0.3-2,1-2.8s1.5-1.2,2.5-1.2c0.4,0,0.8,0.1,1.2,0.4s0.8,0.4,1,0.4c0.5,0,0.9-0.4,1.1-1.1c0.2-0.7,0.2-1.4,0.2-2
			c0-0.9-0.3-1.7-0.8-2.5s-1.2-1.2-2.1-1.2c-1.2,0-2.5,0.6-3.9,1.7c-1.4,1.1-2.9,2.6-4.3,4.5c-1.4,1.8-2.8,3.9-4.2,6.2
			c-1.4,2.3-2.6,4.6-3.6,7c-1,2.3-1.8,4.6-2.5,6.8c-0.6,2.2-0.9,4-0.9,5.5c0,1.3,0.3,2.2,0.9,2.9c0.6,0.7,1.4,1,2.2,1
			c1.2,0,2.4-0.5,3.8-1.4c1.3-0.9,2.7-2.2,4.1-3.6c1.4-1.5,2.7-3.1,4.1-4.9c1.4-1.8,2.6-3.5,3.8-5.2s2.3-3.2,3.3-4.5
			s1.8-2.3,2.5-2.9c0.5-0.5,1.2-0.8,2.2-1.1s2-0.4,3.1-0.4c1.3,0,2.4,0.2,3.3,0.6c1,0.4,1.5,1.2,1.5,2.3c0,0.7-0.2,1.4-0.6,2.1
			c-0.9,1.8-2.2,4-3.6,6.6c-1.5,2.6-2.9,5.3-4.3,8c-1.4,2.8-2.5,5.5-3.5,8.1c-1,2.6-1.5,4.8-1.5,6.5c0,2.4,1.1,3.6,3.4,3.6
			c1.6,0,3.2-0.6,4.9-1.9c1.7-1.3,3.4-3,5.2-5c1.7-2.1,3.4-4.4,5.1-7c1.7-2.6,3.3-5.1,4.8-7.7c1.5-2.5,2.9-5,4.1-7.3
			c1.3-2.3,2.3-4.2,3.1-5.7c0.3-0.6,0.7-0.9,1.3-0.9c0.3,0,0.6,0.1,0.8,0.4c0.2,0.3,0.3,0.6,0.3,0.9c0,1.2-0.5,2.7-1.5,4.7
			s-2.1,4-3.2,6c-1.6,3.1-3.4,6.4-5.5,9.7c-2.1,3.4-4.4,6.5-6.9,9.3s-5,5.1-7.8,6.9c-2.7,1.8-5.4,2.7-8,2.7c-3.2,0-5.4-0.8-6.6-2.4
			c-1.2-1.6-1.8-3.6-1.8-6c0-1.6,0.2-3.2,0.6-5c0.4-1.8,0.8-3.5,1.4-5.2c0.5-1.7,1-3.3,1.5-4.8C39.9,275.3,40.3,274,40.7,272.9z"/>
	</g>
	
		<linearGradient id="SVGID_4_" gradientUnits="userSpaceOnUse" x1="-108.1701" y1="275.95" x2="-72.8308" y2="275.95" gradientTransform="matrix(1 0 0 -1 0 617)">
		<stop  offset="0" style="stop-color:#94A999"/>
		<stop  offset="0.5112" style="stop-color:#7D9987"/>
		<stop  offset="1" style="stop-color:#527B66"/>
	</linearGradient>
	<path class="st3" d="M-81.6,357.5c0,1.9-0.2,3.8-0.6,5.6s-1.1,3.4-2,4.9c-0.9,1.4-2.2,2.6-3.7,3.4c-1.5,0.9-3.4,1.3-5.6,1.3
		c-3.4,0-5.8-0.6-7.3-1.9c-1.4-1.3-2.2-3-2.2-5c0-1.9,0.5-4,1.4-6.4c1-2.3,2.2-4.7,3.7-7.1c1.5-2.4,3.1-4.7,5-6.9
		c1.8-2.2,3.6-4.2,5.2-5.9c-1-1.8-2-3.5-3.2-5.2l-0.4,0.8c-0.4,0.7-1,1.7-1.8,3.1c-0.8,1.4-1.7,2.7-2.8,4.1
		c-1.1,1.4-2.2,2.6-3.3,3.6c-1.2,1-2.3,1.5-3.3,1.5c-2.1,0-3.5-0.4-4.3-1.3c-0.8-0.9-1.3-2-1.3-3.4c0-1.5,0.4-3.2,1.1-5
		c0.8-1.9,1.7-3.7,2.8-5.5c1.1-1.8,2.2-3.5,3.4-5c1.2-1.5,2.2-2.7,3-3.5l0.1-0.1c-0.4-1.1-0.8-2.1-1-3.2s-0.4-2.3-0.4-3.5
		c0-1,0.2-1.9,0.5-2.8c0.3-0.9,0.7-1.7,1.3-2.4c0.5-0.7,1.2-1.2,2-1.7c0.8-0.4,1.8-0.6,2.9-0.6c1.6,0,2.7,0.3,3.3,0.9
		c0.6,0.6,1,1.4,1,2.3c0,1.1-0.3,2.3-0.9,3.7c-0.6,1.3-1.3,2.6-2.1,3.9c-0.8,1.3-1.6,2.4-2.4,3.4s-1.4,1.8-1.7,2.2
		c0.6,1.1,1.2,2.1,1.9,3.1c0.7,1,1.4,2,2.3,3.1c0.8-1.5,1.5-2.8,2.1-4.1c0.6-1.2,1.3-2.3,1.9-3.2s1.2-1.6,1.8-2
		c0.6-0.5,1.2-0.7,1.9-0.7c0.5,0,1.1,0.2,1.7,0.6c0.6,0.4,0.9,1.1,0.9,2c0,0.6-0.1,1.2-0.4,1.7s-0.7,0.7-1.3,0.7
		c-0.4,0-0.7-0.1-0.9-0.3c-0.1-0.2-0.2-0.5-0.2-0.8c0-0.4,0.2-0.8,0.5-1.2s0.7-0.5,1-0.5c0.2,0,0.3,0,0.4,0.1c0-0.5-0.2-0.8-0.5-1.1
		c-0.3-0.2-0.7-0.4-1.3-0.4c-0.6,0-1.2,0.4-1.8,1.1c-0.6,0.7-1.2,1.6-1.8,2.7c-0.6,1.1-1.2,2.2-1.8,3.4c-0.6,1.2-1.1,2.3-1.6,3.3
		c0.6,0.8,1.2,1.7,1.8,2.6c0.6,0.9,1.2,1.9,1.8,2.9c1.2-1.2,2.5-2.6,3.7-4c1.2-1.4,2.3-2.8,3.3-4.2s1.7-2.9,2.3-4.4s0.9-2.9,0.9-4.4
		c0-1.4-0.3-2.6-0.8-3.6c-0.6-1-1.2-1.7-1.9-2.4c-0.7-0.6-1.3-1.1-1.9-1.4c-0.6-0.3-0.8-0.5-0.8-0.6c0-0.6,0.5-0.9,1.4-0.9
		c0.6,0,1.4,0.2,2.3,0.5c0.9,0.3,1.7,0.8,2.5,1.5c0.8,0.6,1.5,1.4,2,2.4c0.6,1,0.9,2.1,0.9,3.4c0,2.3-0.4,4.4-1.2,6.4
		s-1.8,3.9-3,5.6c-1.2,1.7-2.5,3.4-4,4.8c-1.4,1.5-2.8,2.8-4.1,4c1,2.2,1.8,4.5,2.5,7.2C-81.9,351.1-81.6,354.1-81.6,357.5z
		 M-96,326.9c-0.7,0.9-1.5,2.1-2.5,3.6s-1.9,3.1-2.8,4.8c-0.9,1.7-1.7,3.3-2.3,4.9c-0.6,1.6-1,2.9-1,4c0,0.7,0.2,1.2,0.5,1.6
		c0.3,0.4,0.8,0.6,1.5,0.6c0.6,0,1.2-0.3,1.9-0.8c0.7-0.5,1.4-1.2,2.2-2c0.7-0.8,1.4-1.7,2.1-2.7s1.3-1.9,1.9-2.8s1.1-1.7,1.5-2.4
		s0.7-1.2,0.8-1.6l0.5-1c-0.8-1.1-1.5-2.2-2.3-3.2C-94.7,329-95.4,327.9-96,326.9z M-93.4,371.5c1.5,0,2.8-0.4,4.1-1.1
		c1.2-0.7,2.3-1.7,3.2-3c0.9-1.2,1.6-2.7,2.1-4.4s0.8-3.4,0.8-5.2c0-3.2-0.3-6-0.9-8.5s-1.3-4.8-2.2-6.9c-1.1,1.1-2.3,2.6-3.9,4.5
		c-1.5,1.9-3,4-4.4,6.3s-2.6,4.6-3.6,6.9c-1,2.3-1.5,4.4-1.5,6.2c0,1.5,0.5,2.8,1.4,3.7C-97.3,371-95.7,371.5-93.4,371.5z
		 M-93,310.4c-1.2,0-2.3,0.6-3.2,1.9c-0.9,1.3-1.5,2.8-1.7,4.5c0,1.1,0.1,2,0.3,2.9c0.2,0.9,0.5,1.8,0.8,2.7
		c0.6-0.7,1.2-1.5,1.8-2.4c0.6-0.9,1.2-1.9,1.8-2.8c0.6-1,1-1.9,1.4-2.8s0.6-1.7,0.6-2.3C-91.2,310.9-91.8,310.4-93,310.4z"/>
	<g>
		
			<linearGradient id="SVGID_5_" gradientUnits="userSpaceOnUse" x1="-72.9631" y1="258.5" x2="60.5544" y2="258.5" gradientTransform="matrix(1 0 0 -1 0 617)">
			<stop  offset="0" style="stop-color:#94A999"/>
			<stop  offset="0.5112" style="stop-color:#7D9987"/>
			<stop  offset="1" style="stop-color:#527B66"/>
		</linearGradient>
		<path class="st4" d="M-69.1,370c0.4,3,1.1,5.3,2.1,6.9s2.3,2.9,4,3.6c1.6,0.8,3.6,1.3,5.8,1.4c2.2,0.2,4.7,0.2,7.4,0.2
			c-0.6-1.6-1.1-3.3-1.4-5.3c-0.3-2-0.5-4.1-0.5-6.4c0-3.5,0.4-7.2,1.2-11.1c0.8-3.8,2.1-7.4,3.8-10.5c1.7-3.2,3.8-5.8,6.5-7.8
			c2.6-2,5.8-3.1,9.5-3.1c4.5,0,7.8,1.4,9.7,4.1c2,2.7,2.9,6,2.9,9.9c0,3.5-0.7,7.3-2.1,11.2c-1.4,3.9-3.2,7.5-5.5,10.8
			c-2.3,3.3-5,6-8,8.2c-3.1,2.2-6.3,3.3-9.7,3.3c1.6,1.9,3.2,3.3,4.9,4.1c1.7,0.8,3.4,1.3,5.2,1.3c2.6,0,5.1-0.7,7.6-2.2
			s4.8-3.4,7-5.8c2.2-2.4,4.1-5,5.8-7.8c1.6-2.9,2.9-5.7,3.9-8.4c-0.8,0-1.6,0-2.6-0.1c-0.9-0.1-1.8-0.3-2.6-0.5
			c-0.8-0.3-1.5-0.6-2.1-1.1s-0.9-1.1-0.9-1.9c0-0.5,0.2-1,0.6-1.3c0.4-0.3,0.9-0.5,1.4-0.5s1,0.2,1.3,0.5c0.7,0.9,1.6,1.4,2.6,1.5
			c1,0.2,2.2,0.2,3.5,0.2c2.8-7.5,5.3-14.6,7.5-21.4c2.2-6.7,4.7-13.6,7.5-20.6H6.7c-2.3,0-4.8-0.5-7.7-1.4c-2.9-0.9-5.8-2-8.8-3.1
			s-6-2.1-9-3.1c-3-0.9-5.8-1.4-8.4-1.4c-1.6,0-3.2,0.3-4.5,0.8c-1.4,0.5-2.6,1.4-3.7,2.5c1,0.2,1.7,0.5,2.2,1
			c0.4,0.5,0.6,1.1,0.6,1.7c0,0.9-0.3,1.7-1,2.5c-0.7,0.8-1.4,1.2-2.3,1.2c-1.1,0-1.9-0.4-2.5-1.2c-0.5-0.8-0.8-1.9-0.8-3.2
			c0-0.9,0.3-1.9,0.9-2.8c0.6-0.9,1.5-1.8,2.6-2.5c1.1-0.7,2.4-1.3,3.9-1.8s3.1-0.7,4.8-0.7c2.2,0,4.8,0.5,7.9,1.4
			c3.1,0.9,6.3,1.9,9.5,3s6.4,2.1,9.5,3s5.7,1.4,8,1.4c0.7-1,1.4-2.3,2.1-3.7c0.7-1.5,1.5-2.9,2.4-4.2s2-2.5,3.2-3.4
			s2.8-1.4,4.6-1.4c2.7,0,4.7,0.6,6,1.8s1.9,2.6,1.9,4.1c0,1.2-0.4,2.4-1.2,3.7c-0.8,1.3-1.8,2.5-2.9,3.5c-1.2,1-2.4,1.9-3.8,2.5
			c-1.3,0.7-2.6,1-3.8,1c-0.5,0.9-1.2,2.5-2,4.6c-0.8,2.2-1.6,4.6-2.5,7.4c-0.9,2.7-1.9,5.6-2.9,8.6s-2,5.9-2.9,8.5
			c-0.9,2.7-1.7,5-2.5,7.1c-0.7,2.1-1.4,3.5-1.8,4.4c4.9-0.1,9.4-0.7,13.6-1.9c4.2-1.2,8.5-2.7,12.7-4.5c0.7-1.8,1.5-4.2,2.4-7.1
			c0.9-2.9,2-6,3.2-9.3s2.5-6.6,4-10c1.4-3.4,3.1-6.4,4.8-9.1c1.8-2.7,3.7-4.9,5.7-6.6c2-1.7,4.3-2.5,6.7-2.5c2,0,3.5,0.6,4.3,1.8
			c0.9,1.2,1.3,2.7,1.3,4.7c0,2.7-0.7,6-2.1,9.7s-3.1,7.4-5.2,11.2c-2.1,3.7-4.4,7.1-6.9,10.3c-2.5,3.1-4.8,5.4-7,6.8
			c-0.5,1.3-1.4,3.6-2.5,6.7s-2.3,6.6-3.5,10.5s-2.2,7.8-3.1,11.9c-0.9,4.1-1.3,7.8-1.3,11c0,3,0.5,5.4,1.4,7.2
			c0.9,1.8,2.6,2.8,4.9,2.8c0.8,0,1.4,0.3,1.9,0.8s0.8,1.1,0.8,1.7c0,0.5-0.2,0.9-0.6,1.2c-0.4,0.4-1,0.5-1.9,0.5
			c-3,0-5.5-0.5-7.5-1.4c-2-0.9-3.6-2.2-4.8-3.8s-2-3.5-2.5-5.6s-0.8-4.3-0.8-6.7c0-3.2,0.3-6.5,1-9.9c0.7-3.4,1.4-6.6,2.2-9.6
			s1.6-5.7,2.3-7.9c0.7-2.3,1.1-3.9,1.3-4.8c-2.8,1.3-5.3,2.2-7.5,2.9s-4.3,1.2-6.3,1.5s-4.1,0.5-6.1,0.6s-4.2,0.3-6.6,0.5
			c-1.4,3.4-3.3,6.8-5.7,10.2c-2.4,3.3-5.1,6.3-8,9c-3,2.7-6.1,4.9-9.5,6.5c-3.4,1.6-6.7,2.5-10,2.5c-2.7,0-5.4-0.7-7.9-2.1
			c-2.5-1.4-4.9-3.6-7-6.6h-4.1c-2.1,0-4.4-0.2-6.9-0.5c-2.5-0.3-4.8-1.1-6.9-2.4c-2.1-1.3-3.9-3.2-5.3-5.8
			c-1.4-2.6-2.1-6.1-2.1-10.6c0-1.6,0.4-3,1.2-4.4s2.1-2.1,3.9-2.1c1.5,0,2.5,0.3,3.2,0.9c0.6,0.6,0.9,1.4,0.9,2.2
			c0,0.7-0.2,1.4-0.5,2.1s-0.7,1.4-1.2,2c-0.5,0.6-1.1,1.1-1.7,1.5C-67.7,369.8-68.4,370-69.1,370z M-46,381.3
			c2.2,0,4.4-1.1,6.8-3.3c2.3-2.2,4.4-4.9,6.3-8c1.9-3.2,3.5-6.6,4.7-10.2c1.2-3.6,1.8-6.8,1.8-9.7c0-2.3-0.5-4.3-1.5-5.8
			s-2.6-2.2-4.9-2.2c-2.1,0-4.1,0.9-6,2.8c-1.9,1.8-3.6,4.2-5,7c-1.4,2.9-2.5,6-3.4,9.4c-0.9,3.4-1.3,6.7-1.3,9.8
			c0,2,0.2,3.9,0.6,5.6C-47.4,378.4-46.8,379.9-46,381.3z M22.3,310c-0.7,0-1.3,0.4-1.8,1.1c-0.5,0.7-1,1.6-1.4,2.6
			s-0.8,2.1-1.2,3.2s-0.7,2.1-1,3c0.6,0,1.4-0.3,2.4-0.8s1.9-1.2,2.8-2.1c0.9-0.8,1.7-1.7,2.3-2.6c0.7-0.9,1-1.8,1-2.5
			C25.4,310.6,24.4,310,22.3,310z M54.4,316.7c-0.7,0-1.5,0.6-2.3,1.9c-0.8,1.3-1.7,3-2.6,5s-1.8,4.3-2.7,6.9s-1.7,5.1-2.5,7.7
			c-0.8,2.5-1.5,5-2.2,7.3s-1.2,4.2-1.6,5.8c2-2.1,3.9-4.6,5.9-7.5c2-2.9,3.7-5.8,5.2-8.8s2.7-5.8,3.6-8.5s1.4-4.9,1.4-6.6
			C56.7,317.7,55.9,316.7,54.4,316.7z"/>
		
			<linearGradient id="SVGID_6_" gradientUnits="userSpaceOnUse" x1="48.7" y1="242.4" x2="111.5252" y2="242.4" gradientTransform="matrix(1 0 0 -1 0 617)">
			<stop  offset="0" style="stop-color:#94A999"/>
			<stop  offset="0.5112" style="stop-color:#7D9987"/>
			<stop  offset="1" style="stop-color:#527B66"/>
		</linearGradient>
		<path class="st5" d="M74.9,375.8c-0.6,1.3-1.5,2.7-2.8,4.1c-1.2,1.4-2.5,2.6-3.9,3.8s-2.9,2.1-4.4,2.9c-1.5,0.7-2.9,1.1-4.2,1.1
			c-3.9,0-6.7-1-8.4-3c-1.7-2-2.5-4.5-2.5-7.5c0-3.1,0.8-6.4,2.3-10s3.6-7,6.2-10.1s5.5-5.7,8.9-7.8c3.3-2.1,6.8-3.2,10.4-3.2
			c2,0,3.5,0.6,4.4,1.9s1.4,2.8,1.4,4.5c0,1.1-0.2,2.2-0.5,3.2c-0.3,1.1-0.7,2-1.3,2.9c-0.5,0.9-1.2,1.6-1.9,2.2
			c-0.7,0.5-1.5,0.8-2.4,0.8c-1.1,0-2-0.3-2.6-0.9c-0.6-0.6-0.9-1.3-0.9-2.1c0-1.1,0.3-2,1-2.8s1.5-1.2,2.5-1.2
			c0.4,0,0.8,0.1,1.2,0.4c0.4,0.3,0.8,0.4,1,0.4c0.5,0,0.9-0.4,1.1-1.1s0.2-1.4,0.2-2c0-0.9-0.3-1.7-0.8-2.5
			c-0.5-0.8-1.2-1.2-2.1-1.2c-1.2,0-2.5,0.6-3.9,1.7c-1.4,1.1-2.9,2.6-4.3,4.5c-1.4,1.8-2.8,3.9-4.2,6.2c-1.4,2.3-2.6,4.6-3.6,7
			c-1,2.3-1.8,4.6-2.5,6.8c-0.6,2.2-0.9,4-0.9,5.5c0,1.3,0.3,2.2,0.9,2.9c0.6,0.7,1.4,1,2.2,1c1.2,0,2.4-0.5,3.8-1.4
			c1.3-0.9,2.7-2.2,4.1-3.6c1.4-1.5,2.7-3.1,4.1-4.9c1.4-1.8,2.6-3.5,3.8-5.2c1.2-1.7,2.3-3.2,3.3-4.5s1.8-2.3,2.5-2.9
			c0.5-0.5,1.2-0.8,2.2-1.1s2-0.4,3.1-0.4c1.3,0,2.4,0.2,3.3,0.6c1,0.4,1.5,1.2,1.5,2.3c0,0.7-0.2,1.4-0.6,2.1
			c-0.9,1.8-2.2,4-3.6,6.6c-1.5,2.6-2.9,5.3-4.3,8c-1.4,2.8-2.5,5.5-3.5,8.1c-1,2.6-1.5,4.8-1.5,6.5c0,2.4,1.1,3.6,3.4,3.6
			c1.6,0,3.2-0.6,4.9-1.9c1.7-1.3,3.4-3,5.2-5c1.7-2.1,3.4-4.4,5.1-7c1.7-2.6,3.3-5.1,4.8-7.7c1.5-2.5,2.9-5,4.1-7.3
			c1.3-2.3,2.3-4.2,3.1-5.7c0.3-0.6,0.7-0.9,1.3-0.9c0.3,0,0.6,0.1,0.8,0.4c0.2,0.3,0.3,0.6,0.3,0.9c0,1.2-0.5,2.7-1.5,4.7
			s-2.1,4-3.2,6c-1.6,3.1-3.4,6.4-5.5,9.7c-2.1,3.4-4.4,6.5-6.9,9.3c-2.5,2.8-5,5.1-7.8,6.9c-2.7,1.8-5.4,2.7-8,2.7
			c-3.2,0-5.4-0.8-6.6-2.4c-1.2-1.6-1.8-3.6-1.8-6c0-1.6,0.2-3.2,0.6-5s0.8-3.5,1.4-5.2c0.5-1.7,1-3.3,1.5-4.8
			C74.2,378.1,74.6,376.9,74.9,375.8z"/>
		
			<linearGradient id="SVGID_7_" gradientUnits="userSpaceOnUse" x1="105.8816" y1="253.85" x2="168.9412" y2="253.85" gradientTransform="matrix(1 0 0 -1 0 617)">
			<stop  offset="0" style="stop-color:#94A999"/>
			<stop  offset="0.5112" style="stop-color:#7D9987"/>
			<stop  offset="1" style="stop-color:#527B66"/>
		</linearGradient>
		<path class="st6" d="M145.6,370.4c0.6,0.3,1.3,0.5,2,0.5s1.4,0.1,2.2,0.1c1.6,0,3.2-0.2,4.9-0.7c1.7-0.5,3.2-1.1,4.7-1.8
			c1.4-0.7,2.7-1.6,3.8-2.5s1.8-1.9,2.2-2.8c0.3-0.9,0.9-1.4,1.8-1.4c0.5,0,0.9,0.1,1.3,0.4c0.4,0.2,0.6,0.6,0.6,1.2
			c0,0.4-0.1,0.7-0.4,1.1c-1,1.6-2.3,3.1-3.8,4.4c-1.5,1.3-3.2,2.3-4.9,3.2c-1.8,0.8-3.6,1.4-5.5,1.9c-1.9,0.4-3.8,0.6-5.7,0.6
			c-1.6,0-3.1-0.2-4.3-0.5c-0.7,1.9-1.9,4-3.5,6.3s-3.5,4.5-5.6,6.5c-2.2,2-4.5,3.7-7,5c-2.5,1.4-5.1,2.1-7.7,2.1s-4.8-0.4-6.6-1.4
			c-1.8-0.9-3.3-2.1-4.5-3.6s-2-3.3-2.6-5.3c-0.5-2-0.8-4.2-0.8-6.5c0-3.1,0.5-6.3,1.4-9.6c0.9-3.3,2.2-6.3,3.8-9
			c1.6-2.7,3.5-4.9,5.7-6.6s4.5-2.5,7-2.5c0.8,0,1.4,0,1.8,0.1c1.1-5.4,3-9.6,5.8-12.7c2.7-3.1,5.7-4.6,8.9-4.6
			c2.1,0,3.9,0.4,5.3,1.2c1.4,0.8,2.5,1.8,3.4,3.1c0.9,1.3,1.5,2.8,1.8,4.6c0.4,1.8,0.5,3.6,0.5,5.6c0,2.1-0.2,4.3-0.5,6.6
			c-0.4,2.3-0.8,4.5-1.4,6.6c-0.5,2.1-1.2,4.1-1.9,5.9C146.9,367.6,146.2,369.1,145.6,370.4z M126.2,353.4c-1.6,0.9-3.1,2.3-4.6,4.3
			s-2.9,4.3-4.1,6.9c-1.2,2.6-2.1,5.3-2.9,8.1c-0.7,2.8-1.1,5.4-1.1,7.9c0,2.7,0.6,5,1.7,6.8s3,2.7,5.7,2.7s5.1-0.7,7.5-2.1
			c2.3-1.4,4.3-3,6.1-4.9c1.8-1.9,3.2-3.8,4.4-5.8c1.2-2,2-3.5,2.5-4.6c-4.9-1.3-8.6-3.6-11.2-7
			C127.5,362.4,126.2,358.3,126.2,353.4z M143.1,369.1c0.5-1.3,1.1-2.9,1.7-4.6c0.6-1.8,1.1-3.6,1.6-5.6s0.9-3.9,1.2-5.9
			c0.3-2,0.5-3.9,0.5-5.7c0-3.2-0.6-5.9-1.7-8c-1.1-2.2-3-3.2-5.5-3.2c-0.9,0-1.9,0.4-2.9,1.2c-1,0.8-1.9,1.9-2.6,3.2
			c-0.8,1.4-1.4,2.9-1.9,4.6c-0.5,1.7-0.8,3.5-0.8,5.4s0.3,3.8,0.8,5.7c0.5,1.9,1.2,3.7,2.2,5.4c0.9,1.7,2,3.2,3.3,4.5
			C140.2,367.3,141.6,368.4,143.1,369.1z"/>
	</g>
</g>
</svg>
