<?xml version="1.0" encoding="utf-8"?>
<!-- Generator: Adobe Illustrator 19.1.0, SVG Export Plug-In . SVG Version: 6.00 Build 0)  -->
<svg version="1.1" xmlns="http://www.w3.org/2000/svg" xmlns:xlink="http://www.w3.org/1999/xlink" x="0px" y="0px"
	 viewBox="0 0 356.5 396.7" style="enable-background:new 0 0 356.5 396.7;" xml:space="preserve">
<style type="text/css">
	.st0{fill:url(#SVGID_1_);}
	.st1{fill:url(#SVGID_2_);}
	.st2{fill:url(#SVGID_3_);}
	.st3{fill:url(#SVGID_4_);}
	.st4{fill:url(#SVGID_5_);}
</style>
<g id="Layer_1">
</g>
<g id="_x3C_Layer_x3E_">
	<g>
		<linearGradient id="SVGID_1_" gradientUnits="userSpaceOnUse" x1="74.9134" y1="254.9844" x2="173.9294" y2="254.9844">
			<stop  offset="0" style="stop-color:#94A999"/>
			<stop  offset="0.5112" style="stop-color:#7D9987"/>
			<stop  offset="1" style="stop-color:#527B66"/>
		</linearGradient>
		<path class="st0" d="M91.9,306.5c-1.5,4.3-2.8,8.7-4.5,12.9c-1.6,4-3.1,8.2-7.2,10.6c-1.4,0.9-3.1,2-4.6,0.7c-1.8-1.7,0.3-3,1-4.3
			c6.1-10.6,8.2-22.3,8.7-34.3c1-24.2-0.8-48.4-1.7-72.7c-0.3-8-0.6-16-1-23.9c-0.1-2.4,0.8-5.1-2.1-6.8c-0.8-0.4-0.4-1.3,0.2-1.7
			c0.8-0.6,1.6-1.2,2.5-1.5c16.1-5.6,32.6-8.9,49.5-5.6c21.9,4.3,35.9,17.8,39.1,39.7c3.7,25.3,3,50.6-7.1,74.8
			c-5.4,12.7-13.9,22.6-26.8,28.3c-12.5,5.5-29.3,2.7-39.3-6.7c-1.9-1.7-3.4-3.7-4.2-6.2C94,308.7,93.9,307.1,91.9,306.5z
			 M94.3,266.4c3.5-2,6.3-3.8,9.2-5.4c4.9-2.7,10.1-3.1,15.4-1.4c0.9,0.3,2.1,0.4,2.1,1.6c0,1.2-1,1.5-1.9,1.9c-2.1,1-4.3,1-6.6,0.5
			c-5.3-1.2-9.4,0.9-12.7,4.7c-4.6,5.4-5.5,11.8-4.4,18.6c0.9,5.3,2.7,10.3,4.4,15.3c6.9,20.2,31.1,25.6,45.8,10.2
			c2.4-2.5,4.5-5.3,6.5-8.2c8.3-12.4,11.4-26.5,12.5-41c1.1-15.2,2.3-30.5-1.4-45.6c-4.1-16.6-14.5-27.3-30.6-32.8
			c-13-4.4-25.7-1.9-38.6,0.5c-2.8,0.5-2.9,2.4-2.8,4.7c0.8,19.3,1.6,38.6,2.3,57.9C93.8,254,94,259.9,94.3,266.4z"/>
		<linearGradient id="SVGID_2_" gradientUnits="userSpaceOnUse" x1="6.4894" y1="101.9281" x2="99.4386" y2="101.9281">
			<stop  offset="0" style="stop-color:#94A999"/>
			<stop  offset="0.5112" style="stop-color:#7D9987"/>
			<stop  offset="1" style="stop-color:#527B66"/>
		</linearGradient>
		<path class="st1" d="M73.9,159.2c2.1-9.1-0.2-20.8-3.9-32.4C64.6,110,55.4,95.4,44.8,81.5c-5.5-7.2-10.3-14.7-13.7-23.1
			C20.8,33.2,39.5,4.9,66.3,5c10.8,0.1,18.1,5.8,23.6,14.5c7.7,12.2,9.9,25.8,9.6,39.9c-0.1,6.3,0,12.6-1.4,18.8
			c-0.5,2.2-0.9,4.3-3.9,3.7c-2.9-0.6-2-3-1.8-4.8c1.9-13.1,2.5-26.3-1-39.2c-3-11.3-8-21.6-19.4-27.1c-7.5-3.6-17.1-2-23.1,3.6
			c-13,12.2-15.8,32-6.8,47.4c7.1,12.1,16,23,23.2,35.1c6.3,10.7,11.6,21.8,15.1,33.7c5.6,19.3,2.4,37.1-9.3,53.5
			c-7.8,10.8-22.6,17.1-33.7,14.1c-5.5-1.5-10.5-4.2-14.2-8.6c-8.7-10.1-15.2-21-16.1-35.1c-0.7-10.7-1-20.9,3-30.9
			c2.5-6.2,7-10,13.4-11.7c4.4-1.2,8,0.3,11.1,3.3c1.2,1.2,3,2.9,0.9,4.6c-1.9,1.4-3.9,3.6-6.7,1.3c-7.3-6-8.7-5.8-12,3
			c-7.6,20.5-2.6,48.4,13.8,62.5c5.3,4.6,11.3,7.7,18.6,7.6c5-0.1,8.9-2.1,11.9-6C67,180.4,70.8,171.7,73.9,159.2z"/>
		<linearGradient id="SVGID_3_" gradientUnits="userSpaceOnUse" x1="90.9346" y1="164.5419" x2="187.9438" y2="164.5419">
			<stop  offset="0" style="stop-color:#94A999"/>
			<stop  offset="0.5112" style="stop-color:#7D9987"/>
			<stop  offset="1" style="stop-color:#527B66"/>
		</linearGradient>
		<path class="st2" d="M95.6,174c-0.4,0.5-1.6-0.2-2.1-0.5c-1-0.6-1.9-1.4-2.3-2.4c-0.7-1.7,0.1-3.6,1.1-4.9c2.2-2.8,5.3-4,8.6-5
			c7.1-2,14.4-1.6,21.7-1.8c6.3-0.2,6.5-0.5,4.2-6.6c-0.3-0.8-0.9-1.6,0-2.2c1.1-0.7,1.9,0.3,2.3,1.1c0.6,1.1,0.7,3.8,1,5
			c0.3,1.4,1,0.7,2.4-0.5c0.5-0.5,1.2-1.5,2-1.3c0.2,0,0.4,0.2,0.6,0.3c1.1,1.1,0.3,2.8-0.9,3.4c-3.9,1.9-3.7,2.6-3.9,9
			c-0.1,1.6,0.1,3.3,1.7,3.9c1.8,0.7,2.7-1,3.6-2.2c3.5-4.7,5.3-10.1,6.6-15.8c0.4-1.7,1.1-5.6,1.7-7c0.2-0.4,0.4-0.8,1.1-0.5
			c2.2,1.5-2,9.9-1.3,12.4c0.2,0.6,0.8,0.6,1.4,0.3c2.1-1.1,3.2-2.5,5.3-0.8c2.3,1.8,0.9,4.4,0.5,6.7c-0.4,2.3-1,4.7-1.2,7
			c-0.1,1.6,0.7,3.1,2.6,3.3c1.8,0.2,1.8-1.4,2.2-2.5c1.3-4.4,3.7-7.8,8.3-9.3c1.4-0.4,2.9-0.7,3.8,0.7c0.8,1.3-0.1,2.4-1,3.3
			c-2,2.2-4.1,4.3-6.2,6.3c-1.3,1.2-2.3,2.4-1.5,4.3c0.9,1.9,2.4,2,4.2,2c5.2-0.1,9.7-2.5,14.5-4.1c2.9-1,5.8-2,8.9-2.5
			c1.3-0.2,2.3,0.1,2.6,1.5c0.2,1.5-0.8,2-2.1,1.9c-4-0.4-7.4,1.4-10.9,2.7c-3.8,1.4-7.6,2.8-11.7,3.4c-3.6,0.5-6.7,0.2-8.8-3.1
			c-0.6-0.9-1.3-1.3-2.4-1.5c-4.4-1.1-5.8-3-5.1-7.4c0.4-2.6,1.2-5.2,1.7-7.8c0.2-0.9,0.8-2.1-0.5-2.6c-1-0.4-3.8,0.8-4.6,1.4
			c-1,0.7-1.8,1.7-2.4,2.7c-1.2,2.2-2,3.8-3.6,6.1c-1.3,1.8-3.4,4.1-5.8,4.3c-1.4,0.1-2.4-1.1-3-2.2c-1.4-2.5-1.1-5.1-0.8-7.8
			c0.5-3.7-0.5-3.2-2.7-3.1c-7.3,0.3-14.6-0.4-21.8,1.3c-1.9,0.4-3.8,1-5.6,1.9c-1.6,0.8-3.3,1.9-3.8,3.7c-0.3,1.1,0,2.2,0.5,3.2
			c0.2,0.4,1.1,1.6,0.9,2.1C95.6,174,95.6,174,95.6,174z M158.8,170c1.7-1,3.4-2.1,4.6-4.5C160.6,166.4,159.4,167.9,158.8,170z"/>
		<linearGradient id="SVGID_4_" gradientUnits="userSpaceOnUse" x1="97.4063" y1="121.5339" x2="297.5615" y2="121.5339">
			<stop  offset="0" style="stop-color:#94A999"/>
			<stop  offset="0.5112" style="stop-color:#7D9987"/>
			<stop  offset="1" style="stop-color:#527B66"/>
		</linearGradient>
		<path class="st3" d="M140.1,133.2c-9.6,11.4-16,11.3-22-0.4c-1.8,1.1-2.2,3.2-3.2,4.7c-1.4,2.2-3.1,4-5.5,5
			c-5.5,2.2-8.8,0.7-10.7-4.9c-1.7-4.9-1.4-9.9-0.9-15c1.1-9.7,1.3-19.6,4.3-29c1.1-3.4,2.3-6.9,6.2-8.5c5.8-2.3,9.1-1.5,14.7,4.2
			c1.2-2.2,2-4.7,5.2-5.1c3.2-0.3,4.4,0.1,3.7,3.7c-1.6,8-3.1,16-4.5,24c-1.2,6.6-2.3,13.3-0.1,20c0.5,1.5,0.2,4,2.3,4.1
			c1.7,0.1,2.3-2.2,3-3.6c5.5-11.2,8.4-23.1,9.9-35.4c0.3-2.1,0.7-4.2,0.8-6.2c0.2-3.5,2.4-4.3,5.4-4.5c2.4-0.1,3.3,0.6,2.9,3.1
			c-1.3,9.1-2.4,18.3-3.8,27.5c-0.7,4.8-0.9,9.5,0.9,14.1c0.5,1.4,1,3.3,2.8,3.4c2,0.1,2.7-1.8,3.3-3.3c4.5-12.4,8.4-25,9.1-38.3
			c0.3-5.9,0.7-6.3,5.6-6.7c2.3-0.2,3.1,0.7,3,2.8c-0.1,5,1.2,9.7,2.5,14.4c0.4,1.3,0.8,2.7,1.5,3.9c0.8,1.4,2.1,2.4,3.7,2.4
			c1.9,0,2-1.8,2.4-3c2-5.5,3.9-11.1,5.9-16.6c2.2-6.1,9-8.9,15-6.1c2.5,1.1,3.6,3.1,3.5,5.7c-0.2,6.1-1.6,11.7-7.1,15.4
			c-1.3,0.9-2.6,1.7-3.8,2.6c-2.6,2-6.2,2.9-6.8,6.9c-1,5.9-1.3,11.7,1.4,17.3c1.5,3,4.2,4.3,7.7,3.9c2.8-0.3,5.4-1.4,8.1-2.3
			c19-6.3,38.3-10.9,58.5-10.1c9.2,0.4,18,2,26.4,6.2c5,2.5,6.4,6.4,6.3,11.3c-0.4,12.7-13.7,22.6-26.1,19.5
			c-2.5-0.6-3.6-2.6-3.2-4.7c0.5-2.3,3.4-2.1,4.6-1.3c4.8,3,8.3,0.9,11.5-2.4c3.9-4,5.9-8.9,4.8-14.6c-0.6-3.1-2.5-5.2-5.3-6.6
			c-8.3-4.4-17.4-4.2-26.3-3.9c-16.9,0.6-33.2,4.5-49.1,10.2c-6.4,2.3-13.2,2.6-19.9,1.4c-4.1-0.7-7.5-5.1-7.9-9.9
			c-0.3-3.6-0.4-7.3-0.2-10.9c0.1-2.7-0.9-3.7-3.4-4.2c-9-1.9-7.4-2.8-10,5.4c-1.2,3.9-3,7.6-3.9,11.5
			C161.1,139.9,145.4,142.5,140.1,133.2z M108.3,137.5c2.2-5.3,4-10,6.1-14.5c4.6-9.7,5.3-19.6,2.6-29.9c-0.7-2.5-1.8-4.6-4.5-4.7
			c-2.5-0.1-2.8,2.3-3.3,4.2c-2.9,12-3.2,24.4-3.9,36.6C105.3,131.8,105.7,134.7,108.3,137.5z M192.9,101.7
			c5.3-3.7,6.9-8.1,4.8-13.6C195.4,92.6,193.4,96.7,192.9,101.7z"/>
		<linearGradient id="SVGID_5_" gradientUnits="userSpaceOnUse" x1="140.838" y1="282.1727" x2="351.4666" y2="282.1727">
			<stop  offset="0" style="stop-color:#94A999"/>
			<stop  offset="0.5112" style="stop-color:#7D9987"/>
			<stop  offset="1" style="stop-color:#527B66"/>
		</linearGradient>
		<path class="st4" d="M235.3,267.7c-1.4,5.8-2.1,11-4.6,15.8c-2.7,5.3-7.2,6.1-12.3,6.3c-4.5,0.1-6.7-2.9-8.5-6.4
			c-0.4-0.9-0.7-1.8-1.1-2.7c-0.4,0-0.8,0.1-1.1,0.1c-0.9,2.3-1.9,4.5-2.6,6.8c-2,6.1-6.2,9-12.5,9.5c-2.7,0.2-4.6-0.7-6-2.9
			c-2-3-3-6.3-3.3-9.9c-1.3-14.8,0.8-29.1,5.4-43.1c1.7-5.1,5.7-7.5,10.7-8.3c4.4-0.7,8.9-0.6,13.3-1.6c2.4-0.6,3.5,0.5,3.4,3.2
			c-0.4,11.5-0.7,23-0.8,34.4c0,5,0.9,9.7,4.1,13.8c1.6,2,2.6,2.2,3.9-0.3c3.2-6.2,3.7-12.9,4.3-19.6c1.4-15.2,4.4-30.2,6.1-45.4
			c0.6-5.1,0.9-10.3,1.3-15.5c0.2-1.9-0.3-3.2-2.7-3.2c-11.1-0.4-22.1-1.1-33.2-1.5c-3.3-0.1-6.7,0-9.9,1.5c-5.5,2.5-6.3,4.5-3,9.6
			c1.9,2.9,2.3,5-1.1,6.7c-0.8,0.4-1.5,0.5-2.4,0.2c-5.9-2.3-7.4-10.5-2.7-14.5c6.9-5.9,14.8-9,23.9-8.6c8.7,0.4,17.4,0.9,26,1.8
			c4.1,0.4,5.5-0.9,5.7-4.8c0.2-4,0.8-8.1,1.3-12.1c0.4-3.1,5.1-5.4,7.7-4c1.5,0.8,1.1,2.1,1,3.3c-0.4,4.6-0.8,9.2-1.2,13.8
			c-0.3,3,0.7,4.2,3.9,4c14-0.7,27.4-3.6,40.8-7.5c10.2-3,20.6-5.4,30.9-8c1.1-0.3,2.2-0.4,3.3-0.5c0.8,0,1.3,0.5,1.5,1.2
			c0.3,0.8-0.1,1.4-0.7,1.8c-0.7,0.4-1.5,0.8-2.3,0.9c-14.3,1.9-27.7,6.9-41.6,10.5c-10.6,2.7-21.3,4.9-32.2,5.9
			c-2,0.2-3.8,0.5-4,3.2c-2,19.4-3.5,38.8-0.7,58.3c0.7,4.6,2,9,3.7,13.3c1.3,3.3,3.4,6.1,6.4,8.1c2.3,1.5,4.8,3.9,7.5,1.3
			c2.7-2.6,5.2-5.6,4-9.9c-0.5-1.7-1.2-3.4-1.9-5.1c-4-10.2-4.9-20.7-3.7-31.4c0.6-5.4,2.9-7.3,8.2-7.6c3.3-0.2,5.3,1.2,6.3,4.3
			c1.1,3.2,1.4,6.6,1.5,9.9c0.2,8.9,1.2,17.9-0.5,26.8c-0.5,2.3,0.1,4.4,1.9,6.1c1.5,1.4,3.1,2.9,4.4,4.5c2.6,3.3,5.5,3.4,9.3,2.1
			c14.9-5.2,30.2-5.9,45.5-1.7c5.8,1.6,10.8,4.6,13.6,10.3c3.3,6.6,2,12.6-3.8,17.2c-2.9,2.3-6.2,3.8-9.8,4.6
			c-17.3,4.1-34.8,2.8-52.3,1.8c-14.4-0.8-28.6-3.7-43.1-2.9c-10.1,0.6-20.1,2.1-29.5,6.2c-1.1,0.5-2.8,0.8-2.8,2.2
			c0,1.7,1.9,1.2,3,1.5c5.1,1,9.4,3.8,13.3,7c5.6,4.5,5,13.1-1.3,16.7c-8.3,4.9-20.3,6.4-27.9-3.9c-2.9-4-4.3-8.2-2.7-13
			c1-2.8,0.2-3.6-2.6-3.1c-18.8,3.4-32.8,13.6-40.6,31.1c-5.1,11.5,2.8,26,14.9,29.5c6.3,1.8,12-3.2,11-9.7
			c-0.5-3.1,1.4-5.6,4.9-5.8c3.1-0.2,2.8,2.7,3.1,4.5c0.6,3.6-0.8,6.6-3.7,8.9c-4.3,3.5-9.1,6-14.5,7.3c-5.9,1.4-10.8-0.9-15.1-4.5
			c-9.3-7.8-12.1-21.1-6.2-32c9.4-17.2,24.1-27.8,43.1-32.1c6.3-1.4,12.3-3.2,18.2-6c18.2-8.6,37.6-9.8,57.2-7.5
			c17.7,2,35.4,3.9,53.2,3.4c5.9-0.2,11.7-1.2,17.2-3.5c6.9-2.9,10.2-7.4,9.8-13.2c-0.4-5.5-5.1-11-11.4-12.7
			c-11.9-3.2-23.6-2-35.2,1.9c-8.1,2.7-16.1,4.3-23.3-2.2c-1.5-1.3-2.4-0.6-3.6,0.3c-12.1,9-25.8,4.9-31-9.2
			C237.5,272.1,237.3,269.9,235.3,267.7z M195.3,291.1c2.3-4.2,4.1-8.1,4.9-12.4c2-10.9,3.9-21.7,5.8-32.6c0.2-1.1,0.4-2.3,0.2-3.3
			c-0.5-2.6-1.1-5.8-4.1-6.3c-3-0.5-4.4,2.4-5.6,4.9c-0.1,0.1-0.1,0.3-0.1,0.4c-3.2,12.8-6.4,25.6-5,38.9
			C191.8,284.2,192.1,287.9,195.3,291.1z M211.9,344.6c3.5,0.8,6.5,0.2,8.3-3.1c1.7-2.9,0.7-8.1-2.2-10.3c-3.6-2.8-7.6-5-12.4-5.7
			c-3.7-0.6-4.9,1-5.2,4.1C199.9,335.1,206,343.1,211.9,344.6z M266.9,236.5c0,0-0.8,3.8-0.7,6.2s1.5,6.8,1.5,6.8s1.1-3.7,0.7-7.2
			C268,238.9,266.9,236.5,266.9,236.5z"/>
	</g>
</g>
</svg>
