<?xml version="1.0" encoding="utf-8"?>
<!-- Generator: Adobe Illustrator 19.1.0, SVG Export Plug-In . SVG Version: 6.00 Build 0)  -->
<svg version="1.1" xmlns="http://www.w3.org/2000/svg" xmlns:xlink="http://www.w3.org/1999/xlink" x="0px" y="0px"
	 viewBox="0 0 217.5 42.7" style="enable-background:new 0 0 217.5 42.7;" xml:space="preserve">
<style type="text/css">
	.st0{fill:url(#SVGID_1_);}
	.st1{fill:url(#SVGID_2_);}
	.st2{fill:url(#SVGID_3_);}
	.st3{fill:url(#SVGID_4_);}
	.st4{fill:url(#SVGID_5_);}
	.st5{fill:url(#SVGID_6_);}
	.st6{fill:url(#SVGID_7_);}
	.st7{fill:url(#SVGID_8_);}
	.st8{fill:url(#SVGID_9_);}
	.st9{fill:url(#SVGID_10_);}
</style>
<g id="Layer_1">
</g>
<g id="_x3C_Layer_x3E_">
	<g>
		<linearGradient id="SVGID_1_" gradientUnits="userSpaceOnUse" x1="1.6029" y1="21.877" x2="18.8314" y2="21.877">
			<stop  offset="0" style="stop-color:#94A999"/>
			<stop  offset="0.5112" style="stop-color:#7D9987"/>
			<stop  offset="1" style="stop-color:#527B66"/>
		</linearGradient>
		<path class="st0" d="M2.3,40c1-3,2-5.8,2.9-8.5s1.8-5.3,2.6-7.8c0.8-2.5,1.6-5,2.4-7.5c0.8-2.5,1.5-5,2.2-7.6
			c-0.6,0.4-1.2,0.9-1.7,1.5c-0.5,0.6-1.1,1.2-1.6,1.8c-0.6,0.6-1.2,1.1-1.8,1.5C6.6,13.8,5.8,14,5,14c-0.9,0-1.7-0.3-2.4-1
			c-0.7-0.6-1-1.4-1-2.2c0-1,0.2-1.7,0.6-2.1C2.5,8.3,3,8,3.4,8c0.5,0,0.9,0.2,1.2,0.5C5,8.9,5.2,9.4,5.2,9.9c0,0.4-0.1,0.7-0.4,1.1
			c-0.3,0.4-0.8,0.7-1.4,1c0.3,0.6,0.8,0.9,1.3,0.9c1,0,2-0.4,2.9-1.2c0.9-0.8,1.8-1.8,2.7-2.8c0.8-1.1,1.6-2.1,2.4-3.2
			c0.7-1,1.4-1.8,2-2.2c0.1-0.1,0.2-0.2,0.4-0.3C15.3,3.1,15.5,3,15.8,3c0.3-0.1,0.6-0.2,0.9-0.2c0.3-0.1,0.6-0.1,0.9-0.1
			c0.7,0,1.1,0.2,1.1,0.7c0,0.2,0,0.4-0.1,0.5c-0.8,1.8-1.7,3.8-2.5,5.9c-0.8,2.1-1.6,4.4-2.5,6.6c-0.8,2.3-1.6,4.6-2.3,6.8
			c-0.7,2.3-1.4,4.5-2.1,6.6c-0.6,2.1-1.2,4-1.8,5.8c-0.5,1.8-1,3.2-1.4,4.5c-0.1,0.4-0.4,0.7-0.8,0.9C5,41,4.5,41.1,4.1,41.1
			c-0.5,0-0.9-0.1-1.3-0.3s-0.6-0.4-0.6-0.7C2.3,40.1,2.3,40,2.3,40z"/>
		<linearGradient id="SVGID_2_" gradientUnits="userSpaceOnUse" x1="20.6058" y1="21.877" x2="37.8343" y2="21.877">
			<stop  offset="0" style="stop-color:#94A999"/>
			<stop  offset="0.5112" style="stop-color:#7D9987"/>
			<stop  offset="1" style="stop-color:#527B66"/>
		</linearGradient>
		<path class="st1" d="M21.3,40c1-3,2-5.8,2.9-8.5s1.8-5.3,2.6-7.8c0.8-2.5,1.6-5,2.4-7.5c0.8-2.5,1.5-5,2.2-7.6
			c-0.6,0.4-1.2,0.9-1.7,1.5c-0.5,0.6-1.1,1.2-1.6,1.8c-0.6,0.6-1.2,1.1-1.8,1.5C25.6,13.8,24.8,14,24,14c-0.9,0-1.7-0.3-2.4-1
			c-0.7-0.6-1-1.4-1-2.2c0-1,0.2-1.7,0.6-2.1C21.5,8.3,22,8,22.4,8c0.5,0,0.9,0.2,1.2,0.5c0.4,0.4,0.5,0.8,0.5,1.3
			c0,0.4-0.1,0.7-0.4,1.1c-0.3,0.4-0.8,0.7-1.4,1c0.3,0.6,0.8,0.9,1.3,0.9c1,0,2-0.4,2.9-1.2c0.9-0.8,1.8-1.8,2.7-2.8
			c0.8-1.1,1.6-2.1,2.4-3.2c0.7-1,1.4-1.8,2-2.2c0.1-0.1,0.2-0.2,0.4-0.3C34.3,3.1,34.5,3,34.8,3c0.3-0.1,0.6-0.2,0.9-0.2
			s0.6-0.1,0.9-0.1c0.7,0,1.1,0.2,1.1,0.7c0,0.2,0,0.4-0.1,0.5c-0.8,1.8-1.7,3.8-2.5,5.9c-0.8,2.1-1.6,4.4-2.5,6.6
			c-0.8,2.3-1.6,4.6-2.3,6.8s-1.4,4.5-2.1,6.6c-0.6,2.1-1.2,4-1.8,5.8c-0.5,1.8-1,3.2-1.4,4.5c-0.1,0.4-0.4,0.7-0.8,0.9
			c-0.4,0.2-0.9,0.3-1.3,0.3c-0.5,0-0.9-0.1-1.3-0.3c-0.4-0.2-0.6-0.4-0.6-0.7C21.3,40.1,21.3,40,21.3,40z"/>
		<linearGradient id="SVGID_3_" gradientUnits="userSpaceOnUse" x1="41.3304" y1="38.4469" x2="45.8909" y2="38.4469">
			<stop  offset="0" style="stop-color:#94A999"/>
			<stop  offset="0.5112" style="stop-color:#7D9987"/>
			<stop  offset="1" style="stop-color:#527B66"/>
		</linearGradient>
		<path class="st2" d="M45.8,38.5c-0.2,0.5-0.5,1-1.1,1.4c-0.6,0.4-1.1,0.7-1.7,0.7c-0.4,0-0.8-0.2-1.1-0.5
			c-0.4-0.3-0.5-0.9-0.5-1.6c0-0.7,0.3-1.3,0.8-1.7c0.5-0.4,1.1-0.6,1.7-0.6c0.5,0,1,0.1,1.4,0.4c0.4,0.3,0.6,0.7,0.6,1.3
			C45.9,38.2,45.9,38.4,45.8,38.5z"/>
		<linearGradient id="SVGID_4_" gradientUnits="userSpaceOnUse" x1="52.6302" y1="21.877" x2="69.8587" y2="21.877">
			<stop  offset="0" style="stop-color:#94A999"/>
			<stop  offset="0.5112" style="stop-color:#7D9987"/>
			<stop  offset="1" style="stop-color:#527B66"/>
		</linearGradient>
		<path class="st3" d="M53.3,40c1-3,2-5.8,2.9-8.5s1.8-5.3,2.6-7.8c0.8-2.5,1.6-5,2.4-7.5c0.8-2.5,1.5-5,2.2-7.6
			c-0.6,0.4-1.2,0.9-1.7,1.5c-0.5,0.6-1.1,1.2-1.6,1.8c-0.6,0.6-1.2,1.1-1.8,1.5C57.6,13.8,56.9,14,56,14c-0.9,0-1.7-0.3-2.4-1
			c-0.7-0.6-1-1.4-1-2.2c0-1,0.2-1.7,0.6-2.1C53.6,8.3,54,8,54.5,8c0.5,0,0.9,0.2,1.2,0.5c0.4,0.4,0.5,0.8,0.5,1.3
			c0,0.4-0.1,0.7-0.4,1.1c-0.3,0.4-0.8,0.7-1.4,1c0.3,0.6,0.8,0.9,1.3,0.9c1,0,2-0.4,2.9-1.2c0.9-0.8,1.8-1.8,2.7-2.8
			c0.8-1.1,1.6-2.1,2.4-3.2c0.7-1,1.4-1.8,2-2.2c0.1-0.1,0.2-0.2,0.4-0.3C66.3,3.1,66.6,3,66.9,3c0.3-0.1,0.6-0.2,0.9-0.2
			s0.6-0.1,0.9-0.1c0.7,0,1.1,0.2,1.1,0.7c0,0.2,0,0.4-0.1,0.5c-0.8,1.8-1.7,3.8-2.5,5.9c-0.8,2.1-1.6,4.4-2.5,6.6
			c-0.8,2.3-1.6,4.6-2.3,6.8s-1.4,4.5-2.1,6.6c-0.6,2.1-1.2,4-1.8,5.8c-0.5,1.8-1,3.2-1.4,4.5c-0.1,0.4-0.4,0.7-0.8,0.9
			c-0.4,0.2-0.9,0.3-1.3,0.3c-0.5,0-0.9-0.1-1.3-0.3c-0.4-0.2-0.6-0.4-0.6-0.7C53.3,40.1,53.3,40,53.3,40z"/>
		<linearGradient id="SVGID_5_" gradientUnits="userSpaceOnUse" x1="71.6322" y1="21.877" x2="88.8607" y2="21.877">
			<stop  offset="0" style="stop-color:#94A999"/>
			<stop  offset="0.5112" style="stop-color:#7D9987"/>
			<stop  offset="1" style="stop-color:#527B66"/>
		</linearGradient>
		<path class="st4" d="M72.3,40c1-3,2-5.8,2.9-8.5s1.8-5.3,2.6-7.8c0.8-2.5,1.6-5,2.4-7.5c0.8-2.5,1.5-5,2.2-7.6
			c-0.6,0.4-1.2,0.9-1.7,1.5c-0.5,0.6-1.1,1.2-1.6,1.8c-0.6,0.6-1.2,1.1-1.8,1.5C76.6,13.8,75.9,14,75,14c-0.9,0-1.7-0.3-2.4-1
			c-0.7-0.6-1-1.4-1-2.2c0-1,0.2-1.7,0.6-2.1C72.6,8.3,73,8,73.5,8c0.5,0,0.9,0.2,1.2,0.5c0.4,0.4,0.5,0.8,0.5,1.3
			c0,0.4-0.1,0.7-0.4,1.1c-0.3,0.4-0.8,0.7-1.4,1c0.3,0.6,0.8,0.9,1.3,0.9c1,0,2-0.4,2.9-1.2c0.9-0.8,1.8-1.8,2.7-2.8
			c0.8-1.1,1.6-2.1,2.4-3.2c0.7-1,1.4-1.8,2-2.2c0.1-0.1,0.2-0.2,0.4-0.3C85.3,3.1,85.6,3,85.9,3c0.3-0.1,0.6-0.2,0.9-0.2
			c0.3-0.1,0.6-0.1,0.9-0.1c0.7,0,1.1,0.2,1.1,0.7c0,0.2,0,0.4-0.1,0.5c-0.8,1.8-1.7,3.8-2.5,5.9c-0.8,2.1-1.6,4.4-2.5,6.6
			c-0.8,2.3-1.6,4.6-2.3,6.8c-0.7,2.3-1.4,4.5-2.1,6.6c-0.6,2.1-1.2,4-1.8,5.8c-0.5,1.8-1,3.2-1.4,4.5c-0.1,0.4-0.4,0.7-0.8,0.9
			c-0.4,0.2-0.9,0.3-1.3,0.3c-0.5,0-0.9-0.1-1.3-0.3s-0.6-0.4-0.6-0.7C72.3,40.1,72.3,40,72.3,40z"/>
		<linearGradient id="SVGID_6_" gradientUnits="userSpaceOnUse" x1="92.3568" y1="38.4469" x2="96.9173" y2="38.4469">
			<stop  offset="0" style="stop-color:#94A999"/>
			<stop  offset="0.5112" style="stop-color:#7D9987"/>
			<stop  offset="1" style="stop-color:#527B66"/>
		</linearGradient>
		<path class="st5" d="M96.9,38.5c-0.2,0.5-0.5,1-1.1,1.4c-0.6,0.4-1.1,0.7-1.7,0.7c-0.4,0-0.8-0.2-1.1-0.5
			c-0.4-0.3-0.5-0.9-0.5-1.6c0-0.7,0.3-1.3,0.8-1.7c0.5-0.4,1.1-0.6,1.7-0.6c0.5,0,1,0.1,1.4,0.4c0.4,0.3,0.6,0.7,0.6,1.3
			C96.9,38.2,96.9,38.4,96.9,38.5z"/>
		<linearGradient id="SVGID_7_" gradientUnits="userSpaceOnUse" x1="103.555" y1="21.8516" x2="138.8743" y2="21.8516">
			<stop  offset="0" style="stop-color:#94A999"/>
			<stop  offset="0.5112" style="stop-color:#7D9987"/>
			<stop  offset="1" style="stop-color:#527B66"/>
		</linearGradient>
		<path class="st6" d="M138.9,36.7c0,0.7-0.2,1.3-0.7,1.8c-0.5,0.5-1.1,0.9-1.8,1.3c-0.8,0.3-1.7,0.6-2.7,0.8
			c-1,0.2-2.1,0.3-3.2,0.3c-2,0-3.9-0.4-5.6-1.1c-1.7-0.7-3.1-1.7-4.2-3c-0.6,0.6-1.3,1.2-2.2,1.7c-0.9,0.5-1.8,1-2.8,1.3
			c-1,0.4-2,0.6-3.1,0.8c-1.1,0.2-2.1,0.3-3.1,0.3c-0.8,0-1.6-0.1-2.4-0.2s-1.4-0.4-1.9-0.7s-1-0.7-1.3-1.2s-0.5-1.1-0.5-1.7
			c0-1.3,0.2-2.5,0.6-3.5c0.4-1,1-1.8,1.6-2.4c0.7-0.6,1.5-1.1,2.4-1.4c0.9-0.3,1.9-0.4,3-0.4c1.5,0,3.1,0.3,4.7,0.8
			c1.6,0.5,3.2,1.3,4.6,2.3c0.5-0.6,1-1.4,1.6-2.5c0.6-1.1,1.2-2.4,1.8-3.8c0.6-1.4,1.2-2.9,1.8-4.5c0.6-1.6,1.1-3.2,1.6-4.8
			c0.5-1.6,0.8-3.1,1.1-4.6c0.3-1.5,0.4-2.8,0.4-4c0-1.6-0.2-2.7-0.7-3.3c-0.5-0.6-1.1-1-1.8-1c-0.7,0-1.5,0.2-2.3,0.7
			c-0.8,0.5-1.6,1.1-2.3,1.7s-1.3,1.4-1.8,2.2c-0.5,0.8-0.8,1.4-0.8,2c0.4-0.3,0.7-0.5,1.1-0.5s0.7,0.1,0.9,0.4
			c0.2,0.3,0.4,0.6,0.4,0.9c0,0.3-0.1,0.7-0.3,1.1c-0.2,0.4-0.6,0.6-1.1,0.6c-0.9,0-1.5-0.3-1.8-0.8c-0.3-0.5-0.5-1.1-0.5-1.6
			c0-1.1,0.3-2.2,0.9-3.1c0.6-1,1.4-1.8,2.3-2.5c0.9-0.7,2-1.3,3.1-1.7c1.1-0.4,2.3-0.6,3.4-0.6c0.7,0,1.5,0.1,2.2,0.3
			s1.3,0.6,1.8,1.1s0.9,1.1,1.2,1.9c0.3,0.8,0.5,1.7,0.5,2.8c0,1.2-0.2,2.6-0.5,4c-0.4,1.5-0.8,2.9-1.4,4.5c-0.6,1.5-1.3,3.1-2,4.7
			c-0.8,1.6-1.5,3.1-2.3,4.5c-0.8,1.5-1.6,2.8-2.3,4.1c-0.8,1.3-1.4,2.4-2,3.3c0.4,0.4,0.9,0.9,1.5,1.5c0.6,0.6,1.2,1.2,1.8,1.8
			c0.7,0.6,1.4,1.1,2.2,1.5c0.8,0.4,1.6,0.6,2.5,0.6c1.3,0,2.5-0.2,3.7-0.5s2.2-1.1,2.9-2.2c0.4-0.5,0.7-0.8,1.1-0.8
			c0.2,0,0.4,0.1,0.6,0.3C138.8,36.3,138.9,36.5,138.9,36.7z M118.6,35.2c-0.4-0.5-1-1-1.6-1.5c-0.6-0.5-1.3-1-2-1.4
			c-0.7-0.4-1.5-0.8-2.3-1c-0.8-0.3-1.5-0.4-2.2-0.4c-1.5,0-2.8,0.5-4,1.4c-1.1,0.9-1.7,2.3-1.7,4.3c0,0.6,0.1,1.2,0.4,1.5
			c0.3,0.4,0.7,0.7,1.2,0.9c0.5,0.2,1.1,0.3,1.7,0.4c0.7,0.1,1.4,0.1,2.1,0.1c0.8,0,1.6-0.1,2.5-0.4c0.8-0.3,1.6-0.6,2.4-1.1
			c0.7-0.4,1.4-0.9,2-1.4C117.7,36,118.2,35.6,118.6,35.2z"/>
		<linearGradient id="SVGID_8_" gradientUnits="userSpaceOnUse" x1="141.762" y1="21.7755" x2="168.5169" y2="21.7755">
			<stop  offset="0" style="stop-color:#94A999"/>
			<stop  offset="0.5112" style="stop-color:#7D9987"/>
			<stop  offset="1" style="stop-color:#527B66"/>
		</linearGradient>
		<path class="st7" d="M161.8,4.3c-1.5,0.4-2.9,1.2-4.3,2.3c-1.4,1.1-2.7,2.4-3.9,3.9c-1.2,1.5-2.3,3.2-3.3,5.1
			c-1,1.9-1.9,3.7-2.6,5.6c-0.7,1.9-1.3,3.8-1.7,5.7c-0.4,1.9-0.6,3.6-0.6,5.1c0,1.2,0.2,2.3,0.5,3.2c0.4,0.9,0.8,1.6,1.4,2.1
			c0.6,0.5,1.3,0.9,2,1.2s1.5,0.4,2.3,0.4c1.5,0,2.8-0.4,4.2-1.1c1.3-0.7,2.6-1.7,3.7-2.8c1.1-1.2,2.2-2.5,3.1-4.1
			c0.9-1.5,1.7-3.1,2.4-4.8c0.6-1.6,1.1-3.3,1.5-4.9c0.4-1.7,0.5-3.2,0.5-4.6c0-1.9-0.3-3.4-1-4.6s-1.7-1.8-3.1-1.8
			c-0.9,0-1.7,0.3-2.5,1c-0.7,0.7-1.4,1.5-1.9,2.5c-0.5,1-0.9,2-1.2,3.1s-0.4,2-0.4,2.8c0,0.5,0.1,0.9,0.2,1.2
			c0.1,0.3,0.3,0.5,0.6,0.5c0.2-0.6,0.5-1,0.8-1.2c0.3-0.2,0.7-0.4,1-0.4c0.5,0,0.9,0.1,1.2,0.4c0.3,0.3,0.5,0.6,0.5,0.9
			c0,0.4-0.2,0.8-0.7,1.2c-0.4,0.4-1.2,0.6-2.2,0.6c-1,0-1.8-0.4-2.3-1.3c-0.5-0.9-0.8-1.9-0.8-3.2c0-1,0.2-2.1,0.5-3.2
			c0.3-1.1,0.8-2.1,1.5-3c0.7-0.9,1.5-1.7,2.5-2.3c1-0.6,2.2-0.9,3.5-0.9c0.9,0,1.7,0.2,2.3,0.6c0.6,0.4,1.2,0.9,1.6,1.6
			c0.4,0.7,0.7,1.5,0.9,2.4c0.2,0.9,0.3,1.9,0.3,3c0,1.6-0.2,3.2-0.6,5c-0.4,1.8-0.9,3.6-1.7,5.3s-1.6,3.5-2.7,5.1
			c-1,1.7-2.2,3.1-3.5,4.4c-1.3,1.3-2.7,2.3-4.3,3s-3.2,1.1-4.9,1.1c-1.1,0-2.2-0.1-3.2-0.4s-2.1-0.7-2.9-1.4
			c-0.9-0.7-1.6-1.6-2.1-2.8c-0.5-1.2-0.8-2.7-0.8-4.5c0-1.4,0.2-3,0.7-4.9c0.5-1.9,1.2-4,2-6.1s1.9-4.2,3.1-6.4
			c1.2-2.1,2.6-4,4.1-5.7s3-3,4.7-4.1c1.7-1,3.4-1.5,5.3-1.5c0.8,0,1.2,0.2,1.2,0.6C162.9,3.8,162.6,4.1,161.8,4.3z"/>
		<linearGradient id="SVGID_9_" gradientUnits="userSpaceOnUse" x1="171.6077" y1="21.877" x2="188.8363" y2="21.877">
			<stop  offset="0" style="stop-color:#94A999"/>
			<stop  offset="0.5112" style="stop-color:#7D9987"/>
			<stop  offset="1" style="stop-color:#527B66"/>
		</linearGradient>
		<path class="st8" d="M172.3,40c1-3,2-5.8,2.9-8.5s1.8-5.3,2.6-7.8c0.8-2.5,1.6-5,2.4-7.5c0.8-2.5,1.5-5,2.2-7.6
			c-0.6,0.4-1.2,0.9-1.7,1.5c-0.5,0.6-1.1,1.2-1.6,1.8c-0.6,0.6-1.2,1.1-1.8,1.5c-0.6,0.4-1.4,0.7-2.2,0.7c-0.9,0-1.7-0.3-2.4-1
			c-0.7-0.6-1-1.4-1-2.2c0-1,0.2-1.7,0.6-2.1c0.4-0.4,0.8-0.6,1.3-0.6c0.5,0,0.9,0.2,1.2,0.5c0.4,0.4,0.5,0.8,0.5,1.3
			c0,0.4-0.1,0.7-0.4,1.1c-0.3,0.4-0.8,0.7-1.4,1c0.3,0.6,0.8,0.9,1.3,0.9c1,0,2-0.4,2.9-1.2c0.9-0.8,1.8-1.8,2.7-2.8
			c0.8-1.1,1.6-2.1,2.4-3.2c0.7-1,1.4-1.8,2-2.2c0.1-0.1,0.2-0.2,0.4-0.3c0.2-0.1,0.5-0.2,0.8-0.3c0.3-0.1,0.6-0.2,0.9-0.2
			c0.3-0.1,0.6-0.1,0.9-0.1c0.7,0,1.1,0.2,1.1,0.7c0,0.2,0,0.4-0.1,0.5c-0.8,1.8-1.7,3.8-2.5,5.9c-0.8,2.1-1.6,4.4-2.5,6.6
			c-0.8,2.3-1.6,4.6-2.3,6.8c-0.7,2.3-1.4,4.5-2.1,6.6c-0.6,2.1-1.2,4-1.8,5.8c-0.5,1.8-1,3.2-1.4,4.5c-0.1,0.4-0.4,0.7-0.8,0.9
			c-0.4,0.2-0.9,0.3-1.3,0.3c-0.5,0-0.9-0.1-1.3-0.3s-0.6-0.4-0.6-0.7C172.3,40.1,172.3,40,172.3,40z"/>
		<linearGradient id="SVGID_10_" gradientUnits="userSpaceOnUse" x1="192.5863" y1="21.2437" x2="217.5179" y2="21.2437">
			<stop  offset="0" style="stop-color:#94A999"/>
			<stop  offset="0.5112" style="stop-color:#7D9987"/>
			<stop  offset="1" style="stop-color:#527B66"/>
		</linearGradient>
		<path class="st9" d="M192.9,39.5c0-2.2,0.4-4.4,1.1-6.6c0.7-2.2,1.7-4.3,2.8-6.5c1.2-2.1,2.5-4.1,4-6.1c1.5-2,2.9-3.8,4.4-5.6
			c1.5-1.8,2.9-3.4,4.3-4.9c1.4-1.5,2.5-2.9,3.4-4.1c-0.9-0.1-1.8-0.3-2.7-0.6c-0.9-0.3-1.8-0.6-2.8-0.9c-0.9-0.3-1.9-0.6-2.9-0.8
			c-1-0.2-2.1-0.3-3.2-0.3c-0.9,0-1.8,0.2-2.7,0.7c-0.8,0.5-1.6,1-2.3,1.7c-0.7,0.7-1.2,1.5-1.6,2.3c-0.4,0.8-0.6,1.6-0.6,2.3
			c0,0.4,0.1,0.8,0.2,1.2c0.1,0.4,0.3,0.8,0.6,1.2c0.3,0.4,0.6,0.7,1,0.9c0.4,0.2,0.9,0.4,1.4,0.4c0-0.2,0-0.5,0.1-0.8
			c0-0.3,0.1-0.6,0.3-0.9c0.2-0.3,0.4-0.5,0.7-0.7c0.3-0.2,0.7-0.3,1.2-0.3c0.2,0,0.5,0.1,0.8,0.3c0.3,0.2,0.5,0.5,0.5,0.9
			c0,0.8-0.3,1.6-1,2.2c-0.7,0.6-1.5,0.9-2.4,0.9c-0.9,0-1.6-0.2-2.3-0.5c-0.6-0.3-1.1-0.7-1.5-1.2c-0.4-0.5-0.7-1-0.8-1.6
			c-0.2-0.6-0.3-1.2-0.3-1.7c0-0.9,0.2-1.9,0.7-2.9c0.5-1,1.1-1.9,1.8-2.8c0.8-0.8,1.6-1.5,2.7-2.1c1-0.5,2.1-0.8,3.2-0.8
			c1.3,0,2.5,0.1,3.7,0.4c1.2,0.2,2.3,0.5,3.4,0.8c1.1,0.3,2.1,0.5,3,0.8c0.9,0.2,1.8,0.4,2.6,0.4c0.5,0,0.9-0.1,1.3-0.3
			c0.4-0.2,0.8-0.3,1.1-0.3c0.4,0,0.8,0.2,1.1,0.5c0.3,0.4,0.4,0.8,0.4,1.2c0,0.5-0.2,1-0.6,1.4c-1.4,1.4-2.9,3-4.5,4.8
			c-1.6,1.8-3.2,3.7-4.9,5.7c-1.6,2-3.2,4.1-4.7,6.2c-1.5,2.1-2.9,4.1-4,6.1c-1.2,2-2.1,3.8-2.8,5.5c-0.7,1.7-1.1,3.2-1.1,4.5
			c0,0.4-0.1,0.8-0.3,0.9c-0.2,0.2-0.4,0.3-0.7,0.3s-0.5-0.1-0.7-0.3C193.1,40.2,192.9,39.9,192.9,39.5z"/>
	</g>
</g>
</svg>
